<?xml version="1.0" encoding="UTF-8" standalone="no"?>
<!DOCTYPE svg PUBLIC "-//W3C//DTD SVG 1.1//EN"
 "http://www.w3.org/Graphics/SVG/1.1/DTD/svg11.dtd">
<!-- Generated by graphviz version 2.42.3 (20191010.1750)
 -->
<!-- Title: snakemake_dag Pages: 1 -->
<svg width="515pt" height="481pt"
 viewBox="0.00 0.00 514.50 481.00" xmlns="http://www.w3.org/2000/svg" xmlns:xlink="http://www.w3.org/1999/xlink">
<g id="graph0" class="graph" transform="scale(1 1) rotate(0) translate(4 477)">
<title>snakemake_dag</title>
<polygon fill="white" stroke="transparent" points="-4,4 -4,-477 510.5,-477 510.5,4 -4,4"/>
<!-- 0 -->
<g id="node1" class="node">
<title>0</title>
<path fill="none" stroke="#d8a456" stroke-width="2" stroke-dasharray="5,2" d="M294,-36C294,-36 264,-36 264,-36 258,-36 252,-30 252,-24 252,-24 252,-12 252,-12 252,-6 258,0 264,0 264,0 294,0 294,0 300,0 306,-6 306,-12 306,-12 306,-24 306,-24 306,-30 300,-36 294,-36"/>
<text text-anchor="middle" x="279" y="-15.5" font-family="sans" font-size="10.00">all</text>
</g>
<!-- 1 -->
<g id="node2" class="node">
<title>1</title>
<path fill="none" stroke="#8fd856" stroke-width="2" stroke-dasharray="5,2" d="M296.5,-108C296.5,-108 261.5,-108 261.5,-108 255.5,-108 249.5,-102 249.5,-96 249.5,-96 249.5,-84 249.5,-84 249.5,-78 255.5,-72 261.5,-72 261.5,-72 296.5,-72 296.5,-72 302.5,-72 308.5,-78 308.5,-84 308.5,-84 308.5,-96 308.5,-96 308.5,-102 302.5,-108 296.5,-108"/>
<text text-anchor="middle" x="279" y="-87.5" font-family="sans" font-size="10.00">combine</text>
</g>
<!-- 1&#45;&gt;0 -->
<g id="edge1" class="edge">
<title>1&#45;&gt;0</title>
<path fill="none" stroke="grey" stroke-width="2" d="M279,-71.7C279,-63.98 279,-54.71 279,-46.11"/>
<polygon fill="grey" stroke="grey" stroke-width="2" points="282.5,-46.1 279,-36.1 275.5,-46.1 282.5,-46.1"/>
</g>
<!-- 2 -->
<g id="node3" class="node">
<title>2</title>
<path fill="none" stroke="#b6d856" stroke-width="2" stroke-dasharray="5,2" d="M195,-396C195,-396 111,-396 111,-396 105,-396 99,-390 99,-384 99,-384 99,-372 99,-372 99,-366 105,-360 111,-360 111,-360 195,-360 195,-360 201,-360 207,-366 207,-372 207,-372 207,-384 207,-384 207,-390 201,-396 195,-396"/>
<text text-anchor="middle" x="153" y="-375.5" font-family="sans" font-size="10.00">extract_unmapped</text>
</g>
<!-- 2&#45;&gt;1 -->
<g id="edge2" class="edge">
<title>2&#45;&gt;1</title>
<path fill="none" stroke="grey" stroke-width="2" d="M152.1,-359.81C150.79,-318.78 152.53,-213.37 199,-144 209.14,-128.87 225.2,-117 240.29,-108.36"/>
<polygon fill="grey" stroke="grey" stroke-width="2" points="242.35,-111.22 249.49,-103.4 239.03,-105.06 242.35,-111.22"/>
</g>
<!-- 3 -->
<g id="node4" class="node">
<title>3</title>
<path fill="none" stroke="#56a9d8" stroke-width="2" stroke-dasharray="5,2" d="M408.5,-473C408.5,-473 143.5,-473 143.5,-473 137.5,-473 131.5,-467 131.5,-461 131.5,-461 131.5,-444 131.5,-444 131.5,-438 137.5,-432 143.5,-432 143.5,-432 408.5,-432 408.5,-432 414.5,-432 420.5,-438 420.5,-444 420.5,-444 420.5,-461 420.5,-461 420.5,-467 414.5,-473 408.5,-473"/>
<text text-anchor="middle" x="276" y="-461" font-family="sans" font-size="10.00">index_mapped</text>
<text text-anchor="middle" x="276" y="-450" font-family="sans" font-size="10.00">reference_genome: S_lycopersicum_chromosomes.4.00</text>
<text text-anchor="middle" x="276" y="-439" font-family="sans" font-size="10.00">sample: ERR418094</text>
</g>
<!-- 3&#45;&gt;2 -->
<g id="edge7" class="edge">
<title>3&#45;&gt;2</title>
<path fill="none" stroke="grey" stroke-width="2" d="M242.71,-431.88C226.75,-422.47 207.54,-411.15 191,-401.4"/>
<polygon fill="grey" stroke="grey" stroke-width="2" points="192.52,-398.23 182.12,-396.17 188.96,-404.26 192.52,-398.23"/>
</g>
<!-- 6 -->
<g id="node7" class="node">
<title>6</title>
<path fill="none" stroke="#567bd8" stroke-width="2" stroke-dasharray="5,2" d="M312,-396C312,-396 240,-396 240,-396 234,-396 228,-390 228,-384 228,-384 228,-372 228,-372 228,-366 234,-360 240,-360 240,-360 312,-360 312,-360 318,-360 324,-366 324,-372 324,-372 324,-384 324,-384 324,-390 318,-396 312,-396"/>
<text text-anchor="middle" x="276" y="-375.5" font-family="sans" font-size="10.00">extract_mapped</text>
</g>
<!-- 3&#45;&gt;6 -->
<g id="edge10" class="edge">
<title>3&#45;&gt;6</title>
<path fill="none" stroke="grey" stroke-width="2" d="M276,-431.69C276,-423.91 276,-414.84 276,-406.45"/>
<polygon fill="grey" stroke="grey" stroke-width="2" points="279.5,-406.32 276,-396.32 272.5,-406.32 279.5,-406.32"/>
</g>
<!-- 4 -->
<g id="node5" class="node">
<title>4</title>
<path fill="none" stroke="#68d856" stroke-width="2" stroke-dasharray="5,2" d="M102,-470.5C102,-470.5 12,-470.5 12,-470.5 6,-470.5 0,-464.5 0,-458.5 0,-458.5 0,-446.5 0,-446.5 0,-440.5 6,-434.5 12,-434.5 12,-434.5 102,-434.5 102,-434.5 108,-434.5 114,-440.5 114,-446.5 114,-446.5 114,-458.5 114,-458.5 114,-464.5 108,-470.5 102,-470.5"/>
<text text-anchor="middle" x="57" y="-455.5" font-family="sans" font-size="10.00">trimmomatic</text>
<text text-anchor="middle" x="57" y="-444.5" font-family="sans" font-size="10.00">sample: ERR418094</text>
</g>
<!-- 4&#45;&gt;2 -->
<g id="edge8" class="edge">
<title>4&#45;&gt;2</title>
<path fill="none" stroke="grey" stroke-width="2" d="M79.75,-434.32C92.42,-424.75 108.38,-412.7 122.16,-402.29"/>
<polygon fill="grey" stroke="grey" stroke-width="2" points="124.54,-404.88 130.41,-396.06 120.32,-399.29 124.54,-404.88"/>
</g>
<!-- 5 -->
<g id="node6" class="node">
<title>5</title>
<path fill="none" stroke="#d8cb56" stroke-width="2" stroke-dasharray="5,2" d="M306.5,-324C306.5,-324 245.5,-324 245.5,-324 239.5,-324 233.5,-318 233.5,-312 233.5,-312 233.5,-300 233.5,-300 233.5,-294 239.5,-288 245.5,-288 245.5,-288 306.5,-288 306.5,-288 312.5,-288 318.5,-294 318.5,-300 318.5,-300 318.5,-312 318.5,-312 318.5,-318 312.5,-324 306.5,-324"/>
<text text-anchor="middle" x="276" y="-303.5" font-family="sans" font-size="10.00">filter_mapped</text>
</g>
<!-- 5&#45;&gt;1 -->
<g id="edge3" class="edge">
<title>5&#45;&gt;1</title>
<path fill="none" stroke="grey" stroke-width="2" d="M259.19,-287.74C232.26,-257.89 184.89,-194.94 210,-144 216.73,-130.35 228.85,-119.23 241.07,-110.77"/>
<polygon fill="grey" stroke="grey" stroke-width="2" points="242.98,-113.71 249.49,-105.34 239.19,-107.82 242.98,-113.71"/>
</g>
<!-- 7 -->
<g id="node8" class="node">
<title>7</title>
<path fill="none" stroke="#56d8b9" stroke-width="2" stroke-dasharray="5,2" d="M326.5,-180C326.5,-180 231.5,-180 231.5,-180 225.5,-180 219.5,-174 219.5,-168 219.5,-168 219.5,-156 219.5,-156 219.5,-150 225.5,-144 231.5,-144 231.5,-144 326.5,-144 326.5,-144 332.5,-144 338.5,-150 338.5,-156 338.5,-156 338.5,-168 338.5,-168 338.5,-174 332.5,-180 326.5,-180"/>
<text text-anchor="middle" x="279" y="-159.5" font-family="sans" font-size="10.00">mapped_genomecov</text>
</g>
<!-- 5&#45;&gt;7 -->
<g id="edge11" class="edge">
<title>5&#45;&gt;7</title>
<path fill="none" stroke="grey" stroke-width="2" d="M276.36,-287.87C276.87,-263.67 277.81,-219.21 278.42,-190.39"/>
<polygon fill="grey" stroke="grey" stroke-width="2" points="281.92,-190.26 278.64,-180.19 274.93,-190.11 281.92,-190.26"/>
</g>
<!-- 8 -->
<g id="node9" class="node">
<title>8</title>
<path fill="none" stroke="#56d86b" stroke-width="2" stroke-dasharray="5,2" d="M453.5,-252C453.5,-252 316.5,-252 316.5,-252 310.5,-252 304.5,-246 304.5,-240 304.5,-240 304.5,-228 304.5,-228 304.5,-222 310.5,-216 316.5,-216 316.5,-216 453.5,-216 453.5,-216 459.5,-216 465.5,-222 465.5,-228 465.5,-228 465.5,-240 465.5,-240 465.5,-246 459.5,-252 453.5,-252"/>
<text text-anchor="middle" x="385" y="-231.5" font-family="sans" font-size="10.00">propper_mapped_genomecov</text>
</g>
<!-- 5&#45;&gt;8 -->
<g id="edge12" class="edge">
<title>5&#45;&gt;8</title>
<path fill="none" stroke="grey" stroke-width="2" d="M302.66,-287.88C316.78,-278.81 334.31,-267.55 349.56,-257.76"/>
<polygon fill="grey" stroke="grey" stroke-width="2" points="351.71,-260.54 358.23,-252.19 347.93,-254.65 351.71,-260.54"/>
</g>
<!-- 6&#45;&gt;5 -->
<g id="edge9" class="edge">
<title>6&#45;&gt;5</title>
<path fill="none" stroke="grey" stroke-width="2" d="M276,-359.7C276,-351.98 276,-342.71 276,-334.11"/>
<polygon fill="grey" stroke="grey" stroke-width="2" points="279.5,-334.1 276,-324.1 272.5,-334.1 279.5,-334.1"/>
</g>
<!-- 7&#45;&gt;1 -->
<g id="edge4" class="edge">
<title>7&#45;&gt;1</title>
<path fill="none" stroke="grey" stroke-width="2" d="M279,-143.7C279,-135.98 279,-126.71 279,-118.11"/>
<polygon fill="grey" stroke="grey" stroke-width="2" points="282.5,-118.1 279,-108.1 275.5,-118.1 282.5,-118.1"/>
</g>
<!-- 8&#45;&gt;1 -->
<g id="edge5" class="edge">
<title>8&#45;&gt;1</title>
<path fill="none" stroke="grey" stroke-width="2" d="M380.77,-215.9C375.45,-196.91 364.92,-166.03 348,-144 339.19,-132.53 327.32,-122.22 315.9,-113.82"/>
<polygon fill="grey" stroke="grey" stroke-width="2" points="317.91,-110.95 307.73,-108.04 313.88,-116.67 317.91,-110.95"/>
</g>
<!-- 9 -->
<g id="node10" class="node">
<title>9</title>
<path fill="none" stroke="#56d0d8" stroke-width="2" stroke-dasharray="5,2" d="M494.5,-180C494.5,-180 407.5,-180 407.5,-180 401.5,-180 395.5,-174 395.5,-168 395.5,-168 395.5,-156 395.5,-156 395.5,-150 401.5,-144 407.5,-144 407.5,-144 494.5,-144 494.5,-144 500.5,-144 506.5,-150 506.5,-156 506.5,-156 506.5,-168 506.5,-168 506.5,-174 500.5,-180 494.5,-180"/>
<text text-anchor="middle" x="451" y="-159.5" font-family="sans" font-size="10.00">define_superblocks</text>
</g>
<!-- 8&#45;&gt;9 -->
<g id="edge13" class="edge">
<title>8&#45;&gt;9</title>
<path fill="none" stroke="grey" stroke-width="2" d="M401.31,-215.7C409.31,-207.22 419.07,-196.86 427.82,-187.58"/>
<polygon fill="grey" stroke="grey" stroke-width="2" points="430.56,-189.78 434.87,-180.1 425.47,-184.98 430.56,-189.78"/>
</g>
<!-- 9&#45;&gt;1 -->
<g id="edge6" class="edge">
<title>9&#45;&gt;1</title>
<path fill="none" stroke="grey" stroke-width="2" d="M408.92,-143.88C381.2,-132.59 345.15,-117.92 318.06,-106.9"/>
<polygon fill="grey" stroke="grey" stroke-width="2" points="319.1,-103.54 308.52,-103.01 316.46,-110.02 319.1,-103.54"/>
</g>
</g>
</svg>
